<svg width="40" height="40" viewBox="0 0 40 40" fill="none" xmlns="http://www.w3.org/2000/svg">
<path d="M17.0717 27.19L10 20.1167L12.3567 17.76L17.0717 22.4733L26.4983 13.045L28.8567 15.4033L17.0717 27.1867V27.19Z" fill="#6DD230"/>
<path fill-rule="evenodd" clip-rule="evenodd" d="M1.66675 20C1.66675 9.87502 9.87508 1.66669 20.0001 1.66669C30.1251 1.66669 38.3334 9.87502 38.3334 20C38.3334 30.125 30.1251 38.3334 20.0001 38.3334C9.87508 38.3334 1.66675 30.125 1.66675 20ZM20.0001 35C18.0303 35 16.0797 34.612 14.2598 33.8582C12.4399 33.1044 10.7864 31.9995 9.39348 30.6066C8.0006 29.2137 6.89571 27.5602 6.14189 25.7403C5.38807 23.9204 5.00008 21.9698 5.00008 20C5.00008 18.0302 5.38807 16.0797 6.14189 14.2598C6.89571 12.4399 8.0006 10.7863 9.39348 9.39342C10.7864 8.00054 12.4399 6.89565 14.2598 6.14183C16.0797 5.38801 18.0303 5.00002 20.0001 5.00002C23.9783 5.00002 27.7936 6.58037 30.6067 9.39342C33.4197 12.2065 35.0001 16.0218 35.0001 20C35.0001 23.9783 33.4197 27.7936 30.6067 30.6066C27.7936 33.4197 23.9783 35 20.0001 35Z" fill="#6DD230"/>
</svg>
